<svg width="105" height="20" viewBox="0 0 105 20" fill="none" xmlns="http://www.w3.org/2000/svg">
<path d="M25.71 16.4908V4.0492C25.71 3.8872 25.8072 3.79 25.9692 3.79H29.8572C31.38 3.79 32.19 4.6 32.19 6.1228V10.0756C32.19 11.5822 31.38 12.4084 29.8572 12.4084H27.9132V16.4908C27.9132 16.6528 27.8322 16.75 27.654 16.75H25.9692C25.8072 16.75 25.71 16.6528 25.71 16.4908ZM27.9132 10.27H29.3388C29.7762 10.27 29.9868 10.027 29.9868 9.622V6.5764C29.9868 6.1552 29.7762 5.9284 29.3388 5.9284H27.9132V10.27ZM40.31 6.1228V10.0756C40.31 11.161 39.905 11.8738 39.1274 12.214L40.2452 16.4584C40.2938 16.6528 40.1966 16.75 40.0184 16.75H38.3336C38.1716 16.75 38.0906 16.669 38.0582 16.5232L36.9728 12.4084H35.855V16.4908C35.855 16.6528 35.7578 16.75 35.5958 16.75H33.911C33.749 16.75 33.6518 16.6528 33.6518 16.4908V4.0492C33.6518 3.8872 33.749 3.79 33.911 3.79H37.9772C39.5 3.79 40.31 4.6 40.31 6.1228ZM35.855 10.27H37.4588C37.88 10.27 38.1068 10.0432 38.1068 9.622V6.5764C38.1068 6.1552 37.88 5.9284 37.4588 5.9284H35.855V10.27ZM42.185 3.79H43.8698C44.0318 3.79 44.129 3.8872 44.129 4.0492V16.4908C44.129 16.6528 44.0318 16.75 43.8698 16.75H42.185C42.0068 16.75 41.9258 16.6528 41.9258 16.4908V4.0492C41.9258 3.8872 42.0068 3.79 42.185 3.79ZM52.5259 3.79H54.6643C54.8749 3.79 54.9883 3.9034 54.9883 4.114V16.426C54.9883 16.6366 54.8749 16.75 54.6643 16.75H53.1577C52.9471 16.75 52.8337 16.6366 52.8337 16.426V9.136H52.7203L51.1165 16.4584C51.0679 16.6528 50.9545 16.75 50.7601 16.75H49.9663C49.7719 16.75 49.6585 16.6528 49.6099 16.4584L48.0061 9.136H47.8927V16.426C47.8927 16.6366 47.7793 16.75 47.5687 16.75H46.0783C45.8677 16.75 45.7543 16.6366 45.7543 16.426V4.114C45.7543 3.9034 45.8677 3.79 46.0783 3.79H48.2167C48.4111 3.79 48.5245 3.8872 48.5731 4.0816L50.3713 12.1492L52.1695 4.0816C52.2181 3.8872 52.3315 3.79 52.5259 3.79ZM63.0709 4.0492V5.6692C63.0709 5.8312 63.0061 5.9446 62.8117 5.9446H58.7617V9.1846H61.8559C62.0179 9.1846 62.1151 9.2818 62.1151 9.46V11.0638C62.1151 11.242 62.0179 11.3392 61.8559 11.3392H58.7617V14.6116H62.8117C63.0061 14.6116 63.0709 14.6926 63.0709 14.8708V16.4908C63.0709 16.6528 63.0061 16.75 62.8117 16.75H56.8501C56.7043 16.75 56.6071 16.6528 56.6071 16.4908V4.0492C56.6071 3.8872 56.7043 3.79 56.8501 3.79H62.8117C63.0061 3.79 63.0709 3.8872 63.0709 4.0492ZM69.3569 3.79H70.8473C71.0255 3.79 71.1713 3.9358 71.1713 4.114V14.4172C71.1713 15.94 70.3613 16.75 68.8385 16.75H67.0241C65.5013 16.75 64.6913 15.94 64.6913 14.4172V4.114C64.6913 3.9358 64.8371 3.79 65.0153 3.79H66.5705C66.7487 3.79 66.8945 3.9358 66.8945 4.114V13.9636C66.8945 14.401 67.1213 14.6116 67.5425 14.6116H68.3849C68.8061 14.6116 69.0329 14.401 69.0329 13.9636V4.114C69.0329 3.9358 69.1787 3.79 69.3569 3.79ZM73.0505 3.79H74.7353C74.8973 3.79 74.9945 3.8872 74.9945 4.0492V16.4908C74.9945 16.6528 74.8973 16.75 74.7353 16.75H73.0505C72.8723 16.75 72.7913 16.6528 72.7913 16.4908V4.0492C72.7913 3.8872 72.8723 3.79 73.0505 3.79Z" fill="#09090B"/>
<rect x="78" y="2.55" width="26.1" height="16.2" fill="#09090B"/>
<path d="M79.71 16.4908V4.0492C79.71 3.8872 79.8072 3.79 79.9692 3.79H83.8572C85.38 3.79 86.19 4.6 86.19 6.1228V10.0756C86.19 11.5822 85.38 12.4084 83.8572 12.4084H81.9132V16.4908C81.9132 16.6528 81.8322 16.75 81.654 16.75H79.9692C79.8072 16.75 79.71 16.6528 79.71 16.4908ZM81.9132 10.27H83.3388C83.7762 10.27 83.9868 10.027 83.9868 9.622V6.5764C83.9868 6.1552 83.7762 5.9284 83.3388 5.9284H81.9132V10.27ZM94.31 6.1228V10.0756C94.31 11.161 93.905 11.8738 93.1274 12.214L94.2452 16.4584C94.2938 16.6528 94.1966 16.75 94.0184 16.75H92.3336C92.1716 16.75 92.0906 16.669 92.0582 16.5232L90.9728 12.4084H89.855V16.4908C89.855 16.6528 89.7578 16.75 89.5958 16.75H87.911C87.749 16.75 87.6518 16.6528 87.6518 16.4908V4.0492C87.6518 3.8872 87.749 3.79 87.911 3.79H91.9772C93.5 3.79 94.31 4.6 94.31 6.1228ZM89.855 10.27H91.4588C91.88 10.27 92.1068 10.0432 92.1068 9.622V6.5764C92.1068 6.1552 91.88 5.9284 91.4588 5.9284H89.855V10.27ZM95.6094 14.4172V6.1228C95.6094 4.6 96.4194 3.79 97.9422 3.79H99.7566C101.279 3.79 102.089 4.6 102.089 6.1228V14.4172C102.089 15.94 101.279 16.75 99.7566 16.75H97.9422C96.4194 16.75 95.6094 15.94 95.6094 14.4172ZM98.412 14.6602H99.3516C99.7728 14.6602 99.9996 14.4496 99.9996 14.0122V6.5278C99.9996 6.1066 99.7728 5.8798 99.3516 5.8798H98.412C97.9908 5.8798 97.764 6.1066 97.764 6.5278V14.0122C97.764 14.4496 97.9908 14.6602 98.412 14.6602Z" fill="white"/>
<path d="M12.5633 9.16244L11.2318 8.85787L12.2685 10.3858V15.1168L15.8159 12.066V6.8731L14.1896 7.48223L12.5633 9.16244ZM4.28931 9.16244L5.62081 8.85787L4.5841 10.3858V15.1168L1.03671 12.0609V6.86802L2.66301 7.47716L4.28931 9.15736V9.16244ZM5.0263 10.6853L6.21041 8.85279L6.9474 9.30964H9.9052L10.6422 8.85279L11.8263 10.6853V17.5533L10.937 18.9289L9.90029 20H6.94249L5.90578 18.934L5.01647 17.5584V10.6853H5.0263ZM12.2685 18.0152L14.1896 16.0305V14.0457L12.2685 15.7259V18.0152ZM4.5841 18.0152L2.66301 16.0305V14.0457L4.5841 15.7259V18.0152ZM8.1315 0V8.70051H7.2422L0.889306 6.25888L0 2.44162L5.32601 2.88832L6.5052 0H8.1315ZM11.8263 2.44162L14.9315 2.13706L12.863 0H10.7945L11.8312 2.44162H11.8263ZM5.0263 2.44162L1.9211 2.13706L3.9896 0H6.05809L5.0263 2.44162ZM17 2.44162L16.1107 6.25888L9.7578 8.70051H8.7211V0H10.3474L11.5266 2.88832L17 2.44162Z" fill="#09090B"/>
</svg>
